<svg width="800" height="520" viewBox="0 0 800 520" fill="none" xmlns="http://www.w3.org/2000/svg">
  <defs>
    <linearGradient id="yesBg" x1="80" y1="40" x2="730" y2="470" gradientUnits="userSpaceOnUse">
      <stop stop-color="#FFF8EF" />
      <stop offset="1" stop-color="#FFE4DE" />
    </linearGradient>
    <radialGradient id="yesGlow" cx="0" cy="0" r="1" gradientUnits="userSpaceOnUse" gradientTransform="translate(405 244) rotate(90) scale(182 268)">
      <stop stop-color="#FFEFC9" />
      <stop offset="1" stop-color="#FFD3DB" stop-opacity="0" />
    </radialGradient>
    <linearGradient id="yesHeart" x1="402" y1="102" x2="402" y2="438" gradientUnits="userSpaceOnUse">
      <stop stop-color="#D74A67" />
      <stop offset="1" stop-color="#9F1F3A" />
    </linearGradient>
    <filter id="yesShadow" x="150" y="40" width="500" height="440" color-interpolation-filters="sRGB">
      <feFlood flood-opacity="0" result="BackgroundImageFix" />
      <feColorMatrix in="SourceAlpha" type="matrix" values="0 0 0 0 0 0 0 0 0 0 0 0 0 0 0 0 0 0 127 0" result="hardAlpha" />
      <feOffset dy="12" />
      <feGaussianBlur stdDeviation="14" />
      <feColorMatrix type="matrix" values="0 0 0 0 0.44313 0 0 0 0 0.10588 0 0 0 0 0.19215 0 0 0 0.25 0" />
      <feBlend mode="normal" in2="BackgroundImageFix" result="effect1_dropShadow_0_1" />
      <feBlend mode="normal" in="SourceGraphic" in2="effect1_dropShadow_0_1" result="shape" />
    </filter>
  </defs>

  <rect x="12" y="12" width="776" height="496" rx="30" fill="url(#yesBg)" />
  <rect x="12" y="12" width="776" height="496" rx="30" stroke="#F1CACC" stroke-width="2" />
  <ellipse cx="402" cy="244" rx="278" ry="182" fill="url(#yesGlow)" />

  <g filter="url(#yesShadow)">
    <path d="M402 438C362 403 302 357 264 314C226 271 208 227 208 184C208 117 259 69 321 69C356 69 391 84 415 110C439 84 474 69 509 69C571 69 622 117 622 184C622 227 604 271 566 314C528 357 468 403 428 438C421 444 409 444 402 438Z" fill="url(#yesHeart)" />
  </g>

  <g opacity="0.92" fill="#E6B262">
    <path d="M150 126L157 144H176L160 155L166 174L150 163L134 174L140 155L124 144H143L150 126Z" />
    <path d="M680 150L686 165H702L689 175L694 190L680 181L666 190L671 175L658 165H674L680 150Z" />
    <path d="M650 362L656 377H672L659 387L664 402L650 393L636 402L641 387L628 377H644L650 362Z" />
  </g>

  <g opacity="0.55" fill="#ECA5B4">
    <circle cx="130" cy="330" r="12" />
    <circle cx="700" cy="288" r="9" />
    <circle cx="100" cy="212" r="7" />
    <circle cx="734" cy="208" r="8" />
  </g>
</svg>
